<?xml version="1.0" encoding="utf-8"?>
<!-- Generator: Adobe Illustrator 25.0.1, SVG Export Plug-In . SVG Version: 6.00 Build 0)  -->
<svg version="1.0" id="katman_1" xmlns="http://www.w3.org/2000/svg" xmlns:xlink="http://www.w3.org/1999/xlink" x="0px" y="0px"
	 viewBox="0 0 154.6 96" style="enable-background:new 0 0 154.6 96;" xml:space="preserve">
<style type="text/css">
	.st0{fill-rule:evenodd;clip-rule:evenodd;}
</style>
<path class="st0" d="M98.3,42.1c-1.6,0-2.8,0.6-3.4,1.6l-0.3,0.6v-1.9H92V54h2.8v-6.9c0-1.6,0.9-2.6,2.5-2.6c1.5,0,2.3,0.9,2.3,2.5
	v7h2.8v-7.5C102.3,43.8,100.8,42.1,98.3,42.1z M84.8,42.1c-3.3,0-5.3,2.1-5.3,5.4v1.6c0,3.2,2.1,5.1,5.4,5.1c2.2,0,3.8-0.8,4.7-2.5
	l-1.7-1c-0.7,1-1.9,1.6-3,1.6c-1.7,0-2.7-1-2.7-2.8v-0.5h7.8v-1.9C89.9,44.1,87.9,42.1,84.8,42.1z M87.4,47.3h-5.2V47
	c0-1.9,0.9-3,2.6-3c1.6,0,2.6,1,2.6,2.8V47.3z M130,40.5v-2.2h-9.6v2.2h3.4v11.3h-3.4V54h9.6v-2.2h-3.4V40.5H130z M56.9,38
	c-4.3,0-7,2.7-7,7v2.3c0,4.3,2.7,7,7,7c4.3,0,7-2.7,7-7V45C63.9,40.7,61.2,38,56.9,38z M61,47.5c0,2.9-1.5,4.5-4.1,4.5
	c-2.6,0-4.1-1.6-4.1-4.5v-2.7c0-2.9,1.5-4.5,4.1-4.5c2.6,0,4.1,1.6,4.1,4.5L61,47.5z M72.7,42.2c-1.5,0-2.7,0.6-3.4,1.6L69,44.2
	v-1.8h-2.6V58h2.8v-5.6l0.3,0.4c0.6,0.9,1.9,1.5,3.3,1.5c2.4,0,4.8-1.6,4.8-5.1v-2C77.5,44.7,76,42.1,72.7,42.2L72.7,42.2z
	 M74.7,49.1c0,1.9-1.1,3-2.8,3c-1.6,0-2.8-1.2-2.8-3v-1.7c0-1.8,1.1-3,2.8-3c1.7,0,2.8,1.2,2.8,3L74.7,49.1z M110,38.3L104.4,54h2.8
	l1.1-3.4h6.5l0,0l1.1,3.3h2.8l-5.6-15.7L110,38.3z M109,48.4l2.5-7.9l2.5,7.9L109,48.4z M42.7,46.2c0.5-1.4,0.3-2.9-0.4-4.1
	c-1.1-1.9-3.3-2.9-5.4-2.4c-1.2-1.3-3-1.9-4.8-1.6c-1.8,0.4-3.2,1.7-3.8,3.4c-1.4,0.3-2.6,1.2-3.3,2.4c-1.1,1.9-0.9,4.3,0.6,5.9
	c-0.5,1.4-0.3,2.9,0.4,4.1c1.1,1.9,3.3,2.9,5.4,2.4c1,1.1,2.3,1.7,3.8,1.7c2.2,0,4.1-1.4,4.8-3.5c1.4-0.3,2.6-1.2,3.3-2.4
	C44.4,50.2,44.2,47.8,42.7,46.2z M35.2,56.7c-0.9,0-1.7-0.3-2.4-0.9l0.1-0.1l4-2.3c0.2-0.1,0.3-0.3,0.3-0.6v-5.6l1.7,1c0,0,0,0,0,0
	v4.7C38.9,55,37.3,56.7,35.2,56.7L35.2,56.7z M27.1,53.2c-0.4-0.8-0.6-1.6-0.4-2.5l0.1,0.1l4,2.3c0.2,0.1,0.4,0.1,0.7,0l4.9-2.8v1.9
	c0,0,0,0,0,0.1l-4,2.3C30.5,55.6,28.2,55,27.1,53.2z M26.1,44.6c0.4-0.8,1.1-1.3,2-1.6v4.7c0,0.2,0.1,0.4,0.3,0.6l4.8,2.8l-1.7,1
	c0,0,0,0-0.1,0l-4-2.3C25.7,48.6,25.1,46.3,26.1,44.6L26.1,44.6z M39.9,47.8L35.1,45l1.7-1c0,0,0,0,0.1,0l4,2.3
	c1.3,0.7,2,2.1,1.9,3.6c-0.1,1.4-1.1,2.7-2.4,3.2v-4.7C40.3,48.1,40.1,47.9,39.9,47.8L39.9,47.8z M41.6,45.3l-0.1-0.1l-4-2.3
	c-0.2-0.1-0.5-0.1-0.7,0L32,45.7v-1.9c0,0,0,0,0-0.1l4-2.3c1.3-0.7,2.8-0.7,4,0.2C41.2,42.4,41.8,43.8,41.6,45.3L41.6,45.3
	L41.6,45.3z M31.1,48.7l-1.7-1c0,0,0,0,0,0V43c0-1.5,0.8-2.8,2.2-3.4c1.3-0.6,2.9-0.4,4,0.5l-0.1,0.1l-4,2.3
	c-0.2,0.1-0.3,0.3-0.3,0.6L31.1,48.7z M32,46.7l2.2-1.2l2.2,1.2v2.5l-2.2,1.2L32,49.2L32,46.7L32,46.7z"/>
</svg>
