<?xml version="1.0" encoding="utf-8"?>
<!-- Generator: Adobe Illustrator 27.8.0, SVG Export Plug-In . SVG Version: 6.00 Build 0)  -->
<svg version="1.0" id="katman_1" xmlns="http://www.w3.org/2000/svg" xmlns:xlink="http://www.w3.org/1999/xlink" x="0px" y="0px"
	 viewBox="0 0 841.89 595.28" style="enable-background:new 0 0 841.89 595.28;" xml:space="preserve">
<style type="text/css">
	.st0{fill:none;stroke:#21808D;stroke-width:6.2914;stroke-miterlimit:10;}
	.st1{fill:#14353B;}
</style>
<path class="st0" d="M171.62,217.15l-45.95,45.99h45.95V217.15v12.59V217.15z"/>
<path class="st0" d="M125.66,263.15l-45.96-45.99v45.99H125.66z"/>
<path class="st0" d="M125.56,210.39v174.22"/>
<path class="st0" d="M171.62,309.13l-45.95-45.99v65.94l45.95,45.99V309.13z"/>
<path class="st0" d="M79.71,309.13l45.96-45.99v65.94l-45.96,45.99V309.13z"/>
<path class="st0" d="M59.99,263.14v65.67h19.72v-19.68l45.95-45.99H59.99z"/>
<path class="st0" d="M125.67,263.14l45.95,45.99v19.68h19.72v-65.67H125.67z"/>
<path class="st1" d="M325.98,273.44c2.87-5.37,6.88-9.5,12.05-12.41c5.16-2.9,11.23-4.35,18.17-4.35c6.95,0,12.7,1.43,17.52,4.29
	c4.82,2.86,8.43,6.65,10.81,11.37c2.39,4.72,3.58,9.89,3.58,15.52v7.79h-54.06c0.43,6.76,2.71,12.13,6.84,16.11
	c4.12,3.99,9.66,5.98,16.61,5.98c5.64,0,9.97-1.15,12.96-3.44c3-2.3,5.19-5.47,6.58-9.55h12.38c-1.65,6.32-5.02,11.8-10.09,16.43
	c-5.08,4.64-12.36,6.95-21.82,6.95c-7.12,0-13.4-1.45-18.83-4.35c-5.43-2.9-9.62-7.03-12.57-12.41c-2.95-5.37-4.43-11.69-4.43-18.97
	C321.68,285.13,323.11,278.81,325.98,273.44L325.98,273.44z M375.09,285.91c0-5.89-1.52-10.5-4.56-13.84c-3.04-3.33-7.81-5-14.33-5
	c-6.08,0-11.05,1.62-14.92,4.87c-3.87,3.25-6.23,7.91-7.1,13.97H375.09z"/>
<path class="st1" d="M404.36,258.63v10.78c0,0.61,0.3,0.91,0.91,0.91c0.35,0,0.61-0.09,0.78-0.26c0.18-0.18,0.35-0.52,0.52-1.04
	c2.26-7.1,7.86-10.65,16.81-10.65h5.73v11.69h-7.43c-5.82,0-10.16,1.38-13.03,4.16c-2.87,2.77-4.3,7.32-4.3,13.64v38.32h-11.73
	v-67.56H404.36z"/>
<path class="st1" d="M497.96,311.95c-3.08,5.41-7.08,9.46-11.99,12.14c-4.91,2.68-10.19,4.03-15.83,4.03
	c-11.12,0-18.94-4.41-23.45-13.25c-0.35-0.69-0.78-1.04-1.3-1.04s-0.78,0.26-0.78,0.78v36.25h-11.73v-92.24h11.73v11.56
	c0,0.52,0.26,0.78,0.78,0.78s0.95-0.35,1.3-1.04c4.51-8.83,12.33-13.25,23.45-13.25c5.64,0,10.92,1.34,15.83,4.03
	c4.91,2.68,8.9,6.73,11.99,12.14c3.08,5.41,4.63,11.93,4.63,19.55C502.59,300.02,501.05,306.54,497.96,311.95z M484.41,273.76
	c-4.3-4.46-9.97-6.69-17-6.69c-7.03,0-12.7,2.23-17,6.69c-4.3,4.46-5.88,10.68-5.88,18.64c0,7.97,1.58,14.18,5.88,18.64
	c4.3,4.46,9.97,6.69,17,6.69c7.03,0,12.7-2.23,17-6.69c4.3-4.46,6.45-10.67,6.45-18.64C490.86,284.44,488.71,278.23,484.41,273.76z"
	/>
<path class="st1" d="M519.61,232.65v93.53h-11.73v-93.53H519.61z"/>
<path class="st1" d="M529.26,273.44c2.87-5.37,6.88-9.5,12.06-12.41c5.16-2.9,11.22-4.35,18.17-4.35c6.95,0,12.71,1.43,17.52,4.29
	c4.82,2.86,8.43,6.65,10.81,11.37c2.39,4.72,3.58,9.89,3.58,15.52v7.79h-54.06c0.43,6.76,2.71,12.13,6.84,16.11
	c4.12,3.99,9.66,5.98,16.61,5.98c5.64,0,9.96-1.15,12.96-3.44c3-2.3,5.19-5.47,6.58-9.55h12.38c-1.65,6.32-5.02,11.8-10.1,16.43
	c-5.08,4.64-12.36,6.95-21.82,6.95c-7.12,0-13.4-1.45-18.83-4.35c-5.43-2.9-9.62-7.03-12.57-12.41c-2.95-5.37-4.43-11.69-4.43-18.97
	C524.97,285.13,526.4,278.81,529.26,273.44L529.26,273.44z M578.38,285.91c0-5.89-1.52-10.5-4.56-13.84c-3.04-3.33-7.82-5-14.33-5
	c-6.07,0-11.05,1.62-14.92,4.87c-3.87,3.25-6.23,7.91-7.1,13.97H578.38z"/>
<path class="st1" d="M586.18,323.58l26.84-33.13L591,261.22v-2.6h12.9l18.38,25.2l19.8-25.2h13.15v2.73l-25.27,31.05l23.32,31.18
	v2.6h-12.64l-19.93-27.15l-21.36,27.15h-13.16L586.18,323.58L586.18,323.58z"/>
<path class="st1" d="M672.26,236.64v14.62h-13.7v-14.62H672.26z M671.55,326.18h-11.73v-67.56h11.73V326.18z"/>
<path class="st1" d="M675.25,258.63H688v-18.19h11.73v18.19h13.42l3.3,9.9h-16.72v32.32c0,4.41-0.11,7.68-0.33,9.81
	c-0.22,2.12-0.32,3.4-0.32,3.83c0,0.61,0.17,1.08,0.52,1.43s0.82,0.52,1.44,0.52c0.43,0,1.71-0.11,3.84-0.32
	c2.12-0.22,5.41-0.32,9.84-0.32h4.56v10.39h-9.12c-7.47,0-13.03-1.82-16.68-5.46c-3.64-3.64-5.47-9.18-5.47-16.63v-35.57h-12.75
	L675.25,258.63L675.25,258.63z"/>
<path class="st1" d="M716.69,258.62h11.95l19.41,56.68c0.27,0.69,0.68,1.61,2.01,1.61s1.74-0.92,2-1.61l19.41-56.68h11.15v2.6
	l-24.28,72.88c-2.09,6.24-5.01,10.59-8.79,13.06c-3.78,2.47-8.17,3.7-15.47,3.7h-12.51v-10.39h9.51c3.04,0,5.51,0.11,7.42,0.32
	c1.91,0.22,3.13,0.32,3.65,0.32c1.48,0,2.47-0.65,3-1.95l3.65-9.87c0.44-1.04,0.47-1.82,0.13-2.34c-0.17-0.35-0.39-0.56-0.65-0.65
	c-0.26-0.09-0.65-0.13-1.17-0.13h-7.95L716.69,258.62L716.69,258.62z"/>
<path class="st1" d="M314.23,312.06c-3.08,5.41-7.08,9.46-11.99,12.14c-4.91,2.68-10.19,4.03-15.83,4.03
	c-11.12,0-18.94-4.41-23.45-13.25c-0.35-0.69-0.78-1.04-1.3-1.04s-0.78,0.26-0.78,0.78v36.25h-11.73v-92.24h11.73v11.56
	c0,0.52,0.26,0.78,0.78,0.78s0.95-0.35,1.3-1.04c4.51-8.84,12.33-13.25,23.45-13.25c5.64,0,10.92,1.34,15.83,4.03
	c4.91,2.68,8.9,6.73,11.99,12.14c3.08,5.41,4.63,11.93,4.63,19.55C318.86,300.13,317.31,306.65,314.23,312.06z M300.68,273.87
	c-4.3-4.46-9.97-6.69-17-6.69s-12.7,2.23-17,6.69c-4.3,4.46-5.88,10.67-5.88,18.64c0,7.97,1.58,14.18,5.88,18.64
	c4.3,4.46,9.97,6.69,17,6.69s12.7-2.23,17-6.69c4.3-4.46,6.45-10.68,6.45-18.64C307.13,284.54,304.98,278.34,300.68,273.87z"/>
</svg>
